<?xml version="1.0" standalone="no"?>
<!DOCTYPE svg PUBLIC "-//W3C//DTD SVG 20010904//EN"
 "http://www.w3.org/TR/2001/REC-SVG-20010904/DTD/svg10.dtd">
<svg version="1.0" xmlns="http://www.w3.org/2000/svg"
 width="1173.000000pt" height="1417.000000pt" viewBox="0 0 1173.000000 1417.000000"
 preserveAspectRatio="xMidYMid meet">

<g transform="translate(0.000000,1417.000000) scale(0.100000,-0.100000)"
fill="#000000" stroke="none">
<path d="M0 13140 l0 -1030 438 -2 437 -3 3 -3402 2 -3403 -440 0 -440 0 0
-1035 0 -1035 2055 0 2055 0 0 1035 0 1035 -480 0 -480 0 0 1230 0 1230 955 0
955 0 0 -2850 0 -2850 -440 0 -440 0 0 -1030 0 -1030 2055 0 2055 0 0 1030 0
1030 -480 0 -480 0 0 1228 0 1229 317 6 c174 4 704 7 1177 7 695 0 885 3 987
15 535 62 962 264 1300 612 316 326 507 737 583 1253 33 218 38 464 33 1590
-4 1201 -4 1195 -63 1458 -39 176 -88 314 -169 477 -143 288 -340 512 -604
689 -228 152 -545 261 -866 296 -54 6 -564 10 -1282 10 l-1191 0 -5 713 c-4
769 -6 801 -63 1057 -111 496 -373 893 -762 1153 -234 157 -505 253 -834 297
-147 20 -204 20 -3019 20 l-2869 0 0 -1030z m5742 695 c719 -95 1246 -570
1412 -1271 57 -241 59 -267 63 -976 l5 -658 -826 0 -826 0 0 379 c0 408 -10
545 -51 677 -53 173 -149 298 -273 359 -140 68 -73 65 -1298 65 l-1108 0 0
-1485 0 -1485 670 0 670 0 0 -285 0 -285 440 0 440 0 0 -395 0 -395 -1110 0
-1110 0 0 -1545 0 -1545 480 0 480 0 0 -725 0 -725 -1745 0 -1745 0 0 725 0
725 440 0 440 0 0 3710 0 3710 -440 0 -440 0 0 720 0 720 2659 0 c2301 0 2675
-2 2773 -15z m-851 -1735 c129 -24 247 -116 304 -236 62 -131 68 -176 73 -571
l4 -363 -546 0 -546 0 0 -585 0 -585 -515 0 -515 0 0 1175 0 1175 844 0 c523
0 864 -4 897 -10z m4934 -1490 c446 -41 774 -188 1060 -474 227 -227 358 -460
440 -781 70 -273 70 -274 70 -1500 0 -1190 -1 -1211 -55 -1475 -121 -589 -459
-1055 -950 -1309 -153 -79 -249 -116 -405 -156 -279 -72 -206 -68 -1662 -72
l-1313 -4 0 -1544 0 -1545 485 0 485 0 0 -720 0 -720 -1745 0 -1745 0 0 720 0
720 440 0 440 0 0 3715 0 3715 -440 0 -440 0 0 720 0 720 2613 0 c1676 0 2651
-4 2722 -10z"/>
<path d="M7010 7695 l0 -1485 1133 2 1132 3 66 23 c233 79 363 287 398 636 14
143 15 1506 1 1645 -37 358 -173 559 -430 638 -50 16 -162 18 -1177 20 l-1123
4 0 -1486z m2112 1155 c139 -43 237 -149 286 -311 39 -127 44 -231 39 -899 -4
-713 -4 -717 -77 -866 -49 -100 -130 -180 -217 -216 l-58 -23 -882 -3 -883 -2
0 1170 0 1170 864 0 c832 0 866 -1 928 -20z"/>
</g>
</svg>
