<?xml version="1.0" standalone="no"?>
<!DOCTYPE svg PUBLIC "-//W3C//DTD SVG 20010904//EN"
 "http://www.w3.org/TR/2001/REC-SVG-20010904/DTD/svg10.dtd">
<svg version="1.0" xmlns="http://www.w3.org/2000/svg"
 width="1181.000000pt" height="1181.000000pt" viewBox="0 0 1181.000000 1181.000000"
 preserveAspectRatio="xMidYMid meet">

<g transform="translate(0.000000,1181.000000) scale(0.100000,-0.100000)"
fill="#000000" stroke="none">
<path d="M5600 11804 c-714 -43 -1383 -198 -2020 -471 -1887 -807 -3229 -2555
-3519 -4583 -45 -314 -55 -460 -55 -840 0 -380 10 -545 55 -850 126 -863 433
-1673 913 -2405 652 -993 1638 -1798 2736 -2232 546 -216 1044 -337 1650 -400
233 -24 857 -24 1090 0 774 81 1438 271 2101 603 1623 811 2789 2338 3143
4114 86 430 110 684 110 1165 0 396 -9 534 -55 850 -140 973 -531 1910 -1126
2700 -712 946 -1700 1662 -2814 2040 -440 150 -874 242 -1359 290 -148 15
-708 27 -850 19z m610 -194 c1266 -73 2415 -530 3390 -1350 173 -146 514 -487
660 -660 703 -836 1146 -1815 1299 -2870 44 -300 55 -471 55 -830 -1 -358 -11
-512 -55 -820 -149 -1042 -585 -2012 -1285 -2855 -139 -167 -522 -550 -689
-689 -1028 -853 -2221 -1305 -3543 -1342 -1390 -39 -2744 440 -3832 1356 -173
146 -514 487 -660 660 -1032 1227 -1501 2770 -1320 4353 118 1026 522 2018
1155 2832 294 378 652 736 1030 1030 1070 833 2445 1262 3795 1185z"/>
<path d="M5530 11489 c-1189 -83 -2292 -528 -3220 -1299 -161 -134 -556 -529
-690 -689 -854 -1029 -1309 -2276 -1310 -3592 0 -1211 391 -2389 1114 -3351
288 -384 678 -780 1061 -1079 756 -589 1671 -977 2627 -1113 266 -38 370 -46
679 -53 520 -11 960 37 1447 157 998 247 1893 752 2622 1480 968 969 1538
2229 1631 3604 13 199 7 679 -11 861 -107 1078 -503 2081 -1149 2910 -225 289
-572 650 -836 868 -934 777 -2023 1213 -3235 1297 -166 11 -561 11 -730 -1z
m484 -407 l50 -7 66 -265 c65 -261 66 -265 93 -268 25 -3 27 -7 27 -48 l0 -44
-73 0 -74 0 -23 100 -22 100 -83 0 c-71 0 -84 -3 -89 -17 -3 -10 -10 -38 -16
-63 -6 -25 -16 -62 -21 -83 l-10 -38 -62 3 -62 3 -3 47 c-3 44 -2 47 25 50 27
3 28 7 102 271 84 302 65 273 175 259z m-452 -44 c6 -54 4 -58 -35 -58 -31 0
-35 -4 -80 -95 l-47 -95 55 0 c46 0 60 -5 85 -27 28 -26 32 -36 42 -125 12
-97 12 -98 39 -98 24 0 27 -4 31 -41 2 -22 1 -42 -3 -45 -4 -2 -38 -7 -77 -10
l-71 -7 -5 34 c-3 19 -10 74 -15 122 -6 48 -13 93 -17 99 -6 10 -141 4 -152
-7 -3 -2 2 -63 10 -135 l14 -130 -31 -4 c-117 -18 -122 -18 -129 6 -12 47 -7
67 20 74 24 6 25 9 20 53 -3 25 -13 114 -21 196 -21 196 -20 195 -49 195 -21
0 -25 6 -31 41 -4 22 -5 42 -2 45 8 8 142 22 149 15 4 -3 12 -58 19 -121 6
-63 15 -118 18 -122 3 -4 34 55 68 130 l62 137 48 6 c26 3 55 7 64 7 13 2 18
-9 21 -40z m1403 -60 c224 -44 236 -58 200 -230 -19 -87 -34 -113 -81 -135
-32 -16 -40 -16 -121 0 -48 9 -90 13 -94 9 -3 -4 -12 -36 -18 -72 -7 -36 -14
-72 -17 -81 -3 -12 4 -18 26 -23 24 -4 30 -10 27 -23 -3 -10 -8 -31 -11 -46
-5 -21 -11 -27 -24 -23 -9 3 -57 13 -105 22 l-89 17 6 30 c3 16 6 36 6 44 0
11 8 14 29 11 l28 -4 45 215 c44 215 44 216 24 225 -12 6 -23 11 -24 12 -9 6
11 84 21 84 7 0 84 -14 172 -32z m-1979 -5 c3 -16 8 -36 11 -45 3 -13 -1 -18
-16 -18 -11 0 -23 -4 -26 -10 -3 -5 13 -104 36 -220 l42 -210 28 0 c24 0 28
-5 34 -41 4 -22 5 -42 3 -44 -1 -1 -47 -12 -101 -23 -108 -22 -108 -22 -111
40 -1 27 3 34 21 36 18 3 21 8 17 30 -3 15 -22 113 -43 217 l-37 190 -27 -2
c-28 -2 -34 8 -40 66 -2 23 3 26 78 42 116 24 124 24 131 -8z m-330 -86 c13
-37 12 -38 -13 -48 -17 -6 -24 -15 -20 -27 2 -9 37 -124 78 -255 80 -260 79
-250 10 -263 -32 -6 -38 -2 -213 172 -125 126 -176 170 -168 149 19 -50 120
-379 120 -391 0 -7 -10 -15 -22 -18 -13 -3 -44 -12 -70 -20 l-47 -15 -15 45
c-15 44 -15 44 10 50 13 3 24 9 24 13 0 3 -28 98 -63 211 -62 202 -64 205 -90
202 -23 -2 -28 3 -38 38 -15 50 -13 51 80 76 l64 18 174 -180 c96 -98 170
-170 165 -159 -22 47 -124 397 -117 403 12 12 99 41 119 39 12 -1 24 -15 32
-40z m2884 -62 c127 -43 146 -55 159 -101 9 -32 5 -53 -29 -158 -75 -231 -118
-340 -142 -358 -41 -31 -110 -18 -301 57 -22 9 -47 56 -47 89 0 24 119 382
147 444 16 35 54 61 89 62 11 0 67 -16 124 -35z m-3554 -157 c11 -24 14 -43 9
-45 -41 -14 -40 -18 55 -222 82 -177 95 -199 111 -191 29 16 35 12 52 -30 l16
-40 -68 -35 c-51 -25 -71 -31 -80 -22 -6 6 -11 14 -11 18 0 3 -22 54 -50 112
l-50 106 -77 -36 c-43 -19 -80 -37 -82 -39 -2 -1 22 -58 53 -125 32 -67 56
-123 54 -124 -9 -8 -129 -65 -136 -65 -5 0 -16 18 -25 40 -15 38 -14 41 4 50
10 6 19 15 19 19 0 5 -41 97 -91 205 -81 173 -94 194 -110 186 -26 -14 -27
-14 -49 30 l-20 40 71 35 c39 20 72 35 74 33 3 -3 39 -82 91 -195 l23 -52 81
37 c44 20 80 39 80 43 0 4 -25 59 -55 124 -31 65 -54 119 -53 120 10 9 125 64
134 65 6 0 19 -19 30 -42z m4134 -78 c74 -34 136 -63 138 -65 2 -1 -5 -19 -15
-39 -14 -31 -53 -60 -235 -178 -120 -77 -221 -144 -223 -148 -5 -7 137 -80
156 -80 5 0 18 19 30 43 12 23 23 43 24 45 2 2 23 -7 48 -20 l46 -23 -41 -87
c-23 -49 -44 -88 -49 -88 -14 0 -374 169 -376 177 -1 4 6 23 15 42 13 27 62
63 229 170 117 75 217 141 223 147 6 6 -16 21 -70 46 l-80 36 -21 -41 c-12
-23 -23 -44 -25 -46 -2 -2 -23 5 -48 15 -52 22 -52 17 1 130 l35 73 51 -23
c29 -13 113 -51 187 -86z m359 -186 c34 -20 64 -40 67 -45 5 -8 -20 -381 -31
-463 -5 -33 12 -10 106 145 61 101 114 187 118 191 5 6 110 -49 130 -68 2 -1
-7 -19 -19 -38 -22 -37 -38 -44 -57 -25 -12 12 -18 5 -187 -273 l-108 -178
-26 14 c-65 34 -62 19 -47 251 8 116 14 228 15 250 l0 40 -43 -75 c-81 -140
-181 -300 -188 -300 -21 0 -128 74 -122 84 31 54 45 66 65 55 11 -6 24 -7 28
-2 5 4 58 89 118 188 104 170 109 180 91 193 -10 7 -19 16 -19 20 0 9 39 72
44 72 3 0 32 -16 65 -36z m-5086 -21 c13 -21 36 -59 51 -84 l27 -47 -34 -21
c-42 -26 -54 -26 -61 -3 -4 9 -15 28 -25 41 l-19 25 -71 -43 c-44 -26 -71 -48
-71 -59 0 -22 199 -352 217 -359 13 -5 153 72 153 84 0 3 -11 25 -25 49 -26
45 -27 44 27 77 l27 17 51 -85 c28 -47 49 -89 46 -93 -10 -17 -245 -152 -274
-158 -59 -12 -82 12 -211 227 -166 276 -166 275 39 399 63 38 118 69 122 70 4
0 18 -17 31 -37z m-437 -342 l57 -74 -31 -28 c-18 -16 -36 -29 -40 -29 -4 0
-20 18 -35 40 -32 45 -22 47 -115 -25 -28 -22 -51 -43 -52 -47 0 -9 91 -128
98 -128 2 0 38 27 80 60 l75 60 28 -32 c16 -18 28 -35 28 -38 0 -3 -35 -32
-79 -64 l-79 -60 51 -65 c29 -36 55 -70 59 -75 8 -9 148 93 149 108 0 4 -14
26 -31 47 l-30 39 28 25 c15 13 33 25 39 25 17 0 127 -139 121 -154 -4 -11
-288 -238 -326 -260 -9 -6 -21 1 -37 20 -27 34 -30 52 -9 60 8 4 15 10 15 14
0 6 -163 219 -266 348 -1 2 -13 -3 -26 -12 -22 -14 -24 -13 -50 23 l-26 37
166 131 c92 73 170 131 174 130 3 -1 32 -35 64 -76z m3184 -51 c162 -10 396
-36 412 -46 4 -3 8 -153 8 -333 l0 -329 138 -32 c172 -40 429 -125 572 -189
l110 -49 196 269 196 269 77 -42 c343 -188 642 -409 909 -670 l112 -111 -23
-31 c-13 -17 -101 -138 -196 -268 l-172 -237 83 -103 c139 -171 251 -338 372
-550 l26 -47 43 14 c304 102 573 185 582 181 28 -10 178 -386 244 -608 73
-251 156 -677 135 -697 -5 -5 -148 -54 -319 -109 l-310 -101 7 -128 c7 -140
-5 -423 -25 -574 l-13 -97 314 -102 314 -102 -6 -42 c-26 -164 -127 -509 -216
-735 -44 -111 -207 -453 -238 -499 -7 -11 -72 7 -319 87 -171 56 -315 101
-320 101 -5 0 -41 -46 -79 -102 -81 -121 -196 -266 -306 -390 -79 -88 -80 -89
-63 -114 9 -14 95 -133 191 -265 96 -132 174 -243 173 -247 -1 -11 -186 -174
-301 -265 -211 -168 -449 -320 -688 -442 -71 -36 -131 -65 -133 -65 -3 0 -94
121 -201 270 l-197 269 -52 -20 c-147 -59 -374 -128 -539 -164 l-78 -17 -2
-331 -3 -331 -35 -8 c-118 -24 -364 -41 -610 -42 -262 0 -387 8 -607 41 l-113
16 0 333 0 333 -37 10 c-21 5 -75 19 -121 31 -126 32 -233 67 -375 122 -71 28
-132 46 -136 42 -4 -5 -90 -123 -191 -262 -100 -140 -189 -256 -195 -259 -26
-9 -328 160 -525 294 -193 132 -438 331 -553 451 l-39 40 195 268 195 268 -69
75 c-91 101 -213 259 -295 382 -36 54 -70 99 -76 99 -5 0 -149 -45 -320 -101
-170 -56 -311 -99 -312 -97 -17 21 -118 223 -166 332 -83 187 -142 349 -195
530 -55 191 -102 414 -89 425 5 4 140 50 299 101 160 51 297 97 306 101 13 7
14 18 1 106 -9 62 -15 198 -16 375 l-1 276 -230 75 c-126 41 -270 88 -318 103
l-89 29 7 55 c26 223 99 552 174 777 74 221 185 483 205 483 6 0 148 -45 315
-100 168 -55 305 -98 306 -97 0 1 32 56 69 122 88 155 187 303 293 438 47 59
83 113 80 120 -3 7 -91 129 -195 272 l-190 260 101 103 c251 255 609 527 909
691 l77 42 54 -73 c29 -40 113 -156 187 -258 73 -102 137 -189 141 -194 4 -5
57 13 121 42 204 92 391 157 593 205 l100 24 3 335 2 335 118 16 c304 43 556
54 832 37z m3048 -77 l33 -28 -116 -255 c-100 -221 -114 -256 -100 -266 8 -6
15 -15 15 -19 0 -14 -42 -65 -53 -65 -7 0 -34 20 -61 43 l-48 43 41 82 c22 45
41 87 40 94 0 11 -97 96 -119 106 -4 1 -42 -24 -85 -57 -85 -65 -82 -65 -144
-12 l-34 30 27 36 c26 33 29 35 49 22 21 -13 36 -4 247 149 l224 162 26 -19
c14 -10 40 -31 58 -46z m-6673 -213 l60 -60 -38 -38 -38 -37 -27 33 -27 33
-35 -36 -34 -36 156 -156 c156 -156 157 -157 178 -138 21 19 21 18 53 -13 l32
-32 -75 -75 c-41 -41 -79 -75 -85 -75 -6 0 -24 13 -40 30 l-29 30 22 23 21 23
-152 152 c-84 84 -156 152 -162 152 -5 0 -22 -12 -37 -27 l-28 -27 32 -33 32
-33 -35 -35 -34 -35 -65 65 -65 65 170 170 c93 94 174 170 180 170 6 0 37 -27
70 -60z m7055 -143 c0 -7 -127 -384 -150 -442 -8 -21 35 16 149 129 l161 159
21 -19 c12 -10 35 -36 52 -57 l30 -39 -31 -31 c-30 -30 -32 -30 -51 -13 -20
18 -24 15 -213 -168 l-192 -186 -33 32 c-18 18 -33 38 -33 46 0 11 124 396
148 460 2 7 -67 -57 -154 -142 l-159 -155 -55 54 -55 55 32 32 c31 31 33 31
52 14 20 -18 23 -15 180 135 146 138 159 154 146 169 -21 24 -19 32 17 62 l33
28 52 -58 c29 -31 53 -60 53 -65z m250 8 c18 -19 31 -37 28 -40 -3 -3 -37 -12
-76 -19 l-71 -13 -27 28 c-15 16 -26 30 -23 33 4 3 119 44 130 45 3 1 20 -15
39 -34z m-7766 -264 c24 -25 26 -31 14 -50 -10 -17 -10 -23 2 -34 12 -11 168
-142 303 -255 15 -13 19 -13 36 2 19 17 21 17 55 -10 40 -32 44 -21 -46 -127
l-57 -67 -36 31 c-34 30 -35 33 -19 51 11 11 14 22 8 27 -5 5 -81 70 -169 145
l-159 136 -21 -20 c-21 -20 -21 -20 -53 13 l-31 32 65 78 c37 42 69 77 73 77
4 0 20 -13 35 -29z m7911 -193 c26 -12 187 -219 189 -243 0 -7 -28 -34 -63
-60 l-64 -48 -28 34 c-35 42 -36 52 -4 73 14 9 25 21 25 27 0 13 -67 102 -84
111 -17 9 -120 -61 -124 -85 -2 -10 19 -48 46 -85 59 -80 68 -111 47 -155 -19
-39 -159 -144 -204 -153 -56 -12 -84 11 -180 142 l-90 124 73 55 c40 30 75 55
78 55 3 0 18 -19 34 -41 l28 -41 -36 -32 -37 -31 46 -62 c25 -35 50 -63 57
-63 21 0 126 80 126 96 0 9 -23 48 -51 89 -55 78 -65 124 -36 165 17 24 140
117 172 130 29 12 50 12 80 -2z m-8259 -249 c38 -23 40 -27 20 -55 -13 -19 -5
-26 157 -139 94 -66 176 -123 183 -128 8 -5 28 15 58 58 l46 65 -50 36 -50 36
17 30 c10 16 23 34 29 38 12 11 180 -105 176 -121 -2 -10 -205 -303 -223 -323
-4 -5 -24 1 -44 14 -26 16 -34 27 -30 39 4 9 8 21 9 28 0 6 -79 68 -177 137
-167 118 -178 124 -190 106 -6 -11 -15 -20 -20 -20 -12 0 -67 42 -67 52 0 9
111 168 118 168 3 0 20 -9 38 -21z m8608 -225 c30 -53 35 -68 24 -75 -7 -5
-58 -35 -113 -67 l-100 -57 115 -6 c63 -4 133 -7 155 -8 38 -1 43 -4 72 -56
l32 -55 -42 -21 c-39 -20 -42 -20 -52 -4 -26 43 -30 45 -132 51 -57 4 -103 4
-103 1 0 -4 9 -21 20 -39 45 -74 18 -128 -99 -193 -43 -24 -69 -45 -66 -52 3
-7 7 -19 10 -26 3 -8 -10 -22 -34 -35 l-39 -22 -36 64 c-20 35 -36 68 -36 73
0 4 47 34 104 66 57 32 107 64 110 73 5 14 -46 118 -65 129 -5 3 -57 -22 -116
-56 -60 -34 -111 -63 -115 -66 -10 -5 -80 125 -73 137 3 6 20 17 37 26 30 15
32 15 47 -4 16 -21 19 -20 209 89 188 108 192 111 177 132 -14 20 -13 23 22
44 21 13 40 23 43 23 3 0 23 -30 44 -66z m-8590 -210 c111 -58 211 -117 224
-130 36 -41 30 -89 -28 -197 -96 -180 -102 -180 -377 -33 -112 59 -212 119
-223 133 -11 14 -20 39 -20 56 0 39 96 222 133 253 48 40 74 33 291 -82z
m-377 -424 c47 -19 89 -43 106 -62 25 -26 28 -37 25 -77 -2 -25 -16 -76 -30
-112 l-26 -66 81 -31 c75 -29 83 -30 94 -15 7 9 14 20 16 26 1 5 21 2 44 -9
l42 -19 -36 -95 c-20 -52 -38 -97 -40 -99 -1 -2 -21 2 -43 9 -37 12 -41 17
-38 42 3 29 2 30 -197 107 -174 69 -202 77 -212 63 -7 -8 -14 -19 -15 -24 -3
-7 -73 15 -85 26 -3 3 62 175 103 274 42 100 83 112 211 62z m9324 -67 c12
-27 25 -58 30 -70 8 -21 -11 -37 -211 -190 -205 -157 -219 -170 -214 -195 5
-24 1 -29 -32 -43 -20 -8 -38 -15 -40 -15 -6 0 -54 111 -54 124 0 6 36 37 80
68 l79 58 -31 75 c-36 86 -31 83 -158 60 -41 -7 -76 -12 -77 -12 0 1 -12 27
-26 58 l-25 57 40 18 c39 18 40 18 56 -3 l17 -22 265 38 c146 21 269 39 273
40 4 0 17 -20 28 -46z m-9845 -1503 c8 0 14 -10 14 -25 0 -14 1 -25 3 -26 1 0
100 -8 219 -17 l217 -18 6 27 c6 25 9 27 48 22 23 -3 43 -7 45 -8 8 -7 -23
-325 -34 -353 -21 -51 -64 -65 -175 -53 -147 14 -173 45 -164 187 l7 91 -63 6
c-109 12 -117 10 -121 -20 -2 -16 -6 -27 -10 -25 -5 1 -26 2 -48 2 l-40 0 5
58 c18 180 13 165 47 158 17 -3 37 -6 44 -6z m9699 -21 c9 -26 26 -37 139 -90
l129 -61 93 7 94 7 0 29 c0 28 2 29 44 29 l43 0 6 -67 c4 -38 7 -87 7 -110 l0
-43 -45 0 c-42 0 -45 2 -45 26 l0 26 -97 -4 -98 -4 -120 -76 c-108 -68 -120
-78 -123 -107 -3 -29 -5 -31 -46 -31 -42 0 -44 1 -50 38 -14 88 -16 86 102
151 59 33 113 64 121 68 10 6 -21 23 -105 57 -65 27 -125 55 -131 64 -7 9 -13
37 -13 63 0 46 1 48 33 52 17 2 37 5 42 5 6 1 15 -12 20 -29z m-9204 -567 c32
-28 32 -30 39 -148 13 -217 12 -217 -312 -234 -312 -15 -314 -14 -320 209 l-3
123 33 29 c22 20 44 29 70 30 20 1 89 5 152 9 63 3 159 7 212 8 94 2 99 1 129
-26z m9257 8 l72 0 0 -51 0 -50 -55 6 -56 7 3 -93 3 -94 60 -6 c33 -4 126 -9
207 -12 181 -7 178 -9 178 104 l0 79 -67 0 c-38 0 -78 3 -90 6 -22 6 -23 4
-23 -50 0 -60 -1 -61 -59 -50 l-31 7 0 100 0 100 122 -6 c66 -4 150 -7 185 -7
l63 0 -6 -152 c-7 -170 -18 -209 -65 -228 -44 -19 -471 -4 -517 17 -52 25 -57
42 -54 203 3 171 6 184 35 176 12 -3 55 -6 95 -6z m-9163 -660 c15 -96 27
-182 28 -190 1 -9 -11 -17 -38 -21 -36 -7 -64 3 -283 98 -134 57 -246 102
-248 100 -5 -4 22 -177 28 -183 2 -1 25 2 52 7 27 5 50 8 52 6 1 -1 4 -25 6
-52 l3 -50 -75 -12 c-129 -20 -113 -41 -149 185 -17 108 -31 202 -31 209 0 6
18 14 39 18 36 6 65 -5 282 -99 134 -58 245 -104 247 -101 2 2 -2 42 -9 90
l-12 85 -36 -6 c-20 -3 -43 -8 -52 -10 -12 -3 -18 4 -23 27 -15 75 -15 74 87
90 82 13 93 13 99 -1 4 -8 19 -94 33 -190z m9350 140 c285 -45 290 -50 258
-245 -22 -136 -39 -168 -92 -180 -36 -8 -470 63 -498 81 -13 8 -30 26 -40 40
-15 24 -15 33 2 142 10 65 24 130 32 145 17 35 67 59 108 52 17 -2 120 -18
230 -35z m-9281 -492 c31 -111 42 -90 -116 -239 -79 -74 -161 -152 -183 -173
-22 -21 -34 -35 -27 -31 16 9 415 125 417 122 1 -1 11 -32 22 -70 23 -75 22
-76 -40 -91 -23 -5 -29 -3 -37 19 -5 14 -15 23 -22 20 -23 -9 -493 -145 -499
-145 -4 0 -12 21 -20 47 l-13 47 184 178 c119 116 173 175 154 168 -16 -6
-105 -34 -199 -61 -93 -28 -178 -52 -187 -55 -14 -4 -21 9 -38 66 -12 40 -20
73 -18 75 2 2 21 8 43 14 40 11 54 4 55 -28 0 -7 6 -11 13 -8 6 2 103 31 215
63 l203 58 -6 27 c-5 22 -2 27 27 36 53 17 56 16 72 -39z m9469 -78 c7 -6 -87
-387 -98 -398 -2 -2 -22 2 -44 8 -37 10 -41 14 -39 37 3 26 1 27 -207 83
l-210 57 -9 -24 c-11 -26 -16 -27 -67 -13 l-36 10 27 100 c15 56 29 103 32
105 2 2 23 -1 46 -7 40 -10 43 -13 37 -38 -5 -25 -3 -29 27 -38 80 -26 389
-105 393 -101 9 10 43 149 37 153 -4 2 -31 9 -59 16 -29 6 -53 14 -53 17 0 2
5 24 11 48 l11 43 96 -26 c54 -14 101 -28 105 -32z m-451 -450 c228 -86 268
-111 268 -168 0 -15 -18 -74 -40 -132 -43 -113 -80 -160 -125 -160 -28 0 -416
143 -455 168 -61 39 -64 83 -14 214 51 134 69 156 131 157 12 1 118 -35 235
-79z m-8782 -186 c17 -36 28 -70 25 -74 -3 -5 -102 -84 -220 -175 -201 -157
-213 -168 -205 -191 9 -21 6 -26 -26 -39 -20 -8 -40 -15 -45 -15 -8 0 -39 64
-53 108 -6 18 29 49 152 137 7 5 -64 155 -74 155 -7 0 -48 -7 -91 -15 -43 -8
-83 -15 -89 -15 -11 0 -61 107 -53 114 2 2 19 11 38 21 33 17 35 17 51 -5 l16
-21 265 39 c145 22 268 40 272 41 4 0 21 -29 37 -65z m8350 -174 c43 -22 47
-29 28 -48 -8 -8 -9 -15 -2 -22 5 -5 108 -64 229 -130 121 -67 223 -124 227
-128 3 -4 -4 -25 -18 -48 l-24 -41 -253 5 -252 4 45 -24 c25 -13 113 -61 197
-107 l152 -84 -31 -56 c-43 -77 -43 -77 -83 -55 -37 20 -40 26 -26 53 8 14
-18 32 -181 121 -105 58 -195 106 -199 108 -4 2 -10 -6 -14 -17 -8 -26 -21
-26 -63 -1 l-33 20 38 71 38 71 245 -7 c135 -4 243 -5 240 -2 -3 2 -86 48
-185 102 -99 54 -182 99 -184 101 -4 3 62 134 67 134 1 0 21 -9 42 -20z
m-8182 -174 l40 -69 -23 -36 c-12 -20 -73 -114 -134 -210 -100 -154 -108 -171
-79 -153 121 73 350 203 352 200 1 -1 18 -31 38 -65 l37 -62 -33 -21 c-41 -25
-53 -25 -66 -1 -9 18 -27 9 -241 -115 -128 -74 -235 -131 -239 -127 -4 4 -16
24 -27 43 l-21 35 134 213 c73 116 131 212 128 212 -3 0 -18 -8 -32 -19 -76
-53 -345 -202 -351 -195 -5 5 -22 34 -40 66 l-31 56 33 21 c43 26 54 26 62 0
4 -11 10 -19 14 -17 22 9 381 221 381 224 0 2 -6 14 -12 25 -8 14 -9 23 -3 25
6 2 24 12 40 23 17 10 31 18 32 17 0 0 19 -32 41 -70z m7884 -389 c25 -18 26
-21 12 -42 -14 -22 -10 -26 163 -155 175 -132 177 -133 193 -112 l17 21 34
-25 c19 -14 34 -28 34 -32 0 -10 -79 -121 -87 -122 -3 0 -55 36 -114 80 l-108
80 -52 -73 c-29 -39 -50 -75 -46 -78 4 -3 53 -41 110 -83 l102 -77 -45 -60
c-26 -32 -50 -59 -54 -59 -4 0 -21 10 -39 23 -30 22 -30 25 -16 46 9 12 14 23
13 25 -2 1 -81 60 -175 129 -94 70 -175 127 -179 127 -4 0 -13 -8 -20 -17 -12
-16 -15 -15 -49 7 -20 14 -34 30 -31 37 8 23 79 113 89 113 5 0 51 -32 103
-70 52 -39 99 -73 106 -76 7 -2 36 27 65 66 l52 70 -110 81 c-69 50 -107 85
-103 92 30 51 87 116 97 110 6 -4 23 -16 38 -26z m-7335 -428 c-1 -3 -85 -79
-187 -168 -102 -90 -189 -171 -194 -181 -7 -15 3 -32 44 -79 29 -34 59 -61 67
-61 11 0 249 202 376 319 l28 26 49 -55 c27 -30 49 -58 50 -61 0 -4 -16 -19
-36 -34 -34 -26 -38 -27 -49 -12 -7 10 -15 17 -19 17 -3 0 -81 -65 -171 -144
-168 -147 -197 -164 -254 -151 -31 7 -136 110 -172 169 -22 37 -24 87 -5 124
8 15 86 90 175 167 158 138 160 140 145 164 -15 22 -14 24 18 52 l33 29 52
-58 c29 -31 51 -60 50 -63z m7059 -151 c4 -6 -7 -24 -24 -41 l-31 -31 -41 33
-41 33 -54 -59 c-30 -32 -54 -65 -55 -74 0 -18 295 -289 315 -289 7 0 39 28
70 62 l56 63 -41 39 -42 38 33 34 32 33 74 -66 c40 -36 73 -68 73 -72 -1 -12
-191 -216 -213 -228 -31 -18 -79 -16 -107 4 -42 28 -340 304 -350 324 -6 10
-10 33 -10 51 0 35 17 59 154 211 l60 66 68 -61 c38 -33 71 -65 74 -70z
m-6663 -260 c7 -10 -7 -84 -47 -243 -31 -126 -55 -229 -53 -231 1 -1 64 69
140 157 76 87 141 159 145 159 4 0 31 -22 60 -48 l52 -47 -29 -35 c-24 -28
-32 -33 -42 -22 -7 6 -19 12 -25 12 -7 0 -86 -84 -175 -187 -89 -104 -167
-193 -173 -200 -8 -9 -20 -3 -49 22 l-38 33 55 238 c31 130 55 238 53 240 -1
1 -64 -69 -140 -157 -76 -88 -143 -159 -149 -157 -13 5 -107 81 -107 88 0 3
13 21 28 40 29 34 30 34 49 17 20 -18 23 -15 166 149 133 152 145 169 131 184
-20 23 -19 30 12 62 l26 28 51 -43 c27 -24 54 -50 59 -59z m6257 -39 c59 -69
61 -72 43 -91 -39 -43 -54 -43 -88 -2 l-32 38 -66 -54 c-36 -30 -66 -59 -66
-65 0 -5 23 -36 52 -67 l52 -57 75 65 75 64 28 -32 c15 -18 27 -35 26 -38 0
-3 -32 -31 -70 -63 -38 -32 -69 -62 -69 -67 0 -5 25 -38 56 -74 l56 -66 27 20
c14 11 46 37 71 59 l45 39 -34 42 -33 42 28 29 c15 16 33 29 38 28 6 0 39 -34
74 -74 l63 -74 -161 -138 c-88 -76 -166 -139 -173 -141 -7 -1 -23 11 -36 28
-22 30 -22 32 -5 51 16 18 16 20 -3 42 -11 12 -76 88 -146 169 -104 123 -127
145 -137 133 -19 -22 -32 -18 -62 18 l-26 34 161 136 c88 76 164 137 168 137
4 0 35 -32 69 -71z m-360 -399 c0 -3 -17 -16 -37 -29 l-36 -23 -27 32 -27 33
-37 -22 c-20 -13 -36 -25 -36 -27 0 -2 54 -86 121 -185 85 -127 125 -179 135
-175 8 3 20 9 28 12 8 3 22 -8 36 -31 12 -20 21 -37 19 -39 -28 -23 -169 -116
-175 -116 -5 0 -19 16 -32 36 l-23 35 23 18 22 19 -119 181 c-66 99 -124 181
-128 181 -4 0 -23 -10 -42 -23 l-34 -23 24 -37 25 -36 -37 -26 c-21 -14 -40
-25 -44 -25 -6 0 -99 136 -99 145 0 3 91 65 202 140 l202 134 48 -72 c26 -40
48 -74 48 -77z m-5445 79 l85 -61 -21 -30 c-26 -37 -45 -44 -65 -27 -13 11
-17 11 -24 -1 -5 -8 -63 -89 -128 -180 -118 -162 -120 -165 -101 -185 18 -20
17 -21 -2 -53 -12 -17 -26 -32 -31 -32 -9 0 -135 87 -162 111 -7 6 7 32 40 78
2 1 13 -4 25 -12 21 -15 24 -12 152 165 129 180 130 181 109 198 l-21 17 26
37 c15 20 28 36 29 36 2 0 42 -27 89 -61z m203 -139 c28 -17 52 -36 52 -43 0
-9 -100 -373 -126 -460 -3 -10 72 63 167 162 95 100 176 181 180 181 4 0 32
-14 62 -32 l56 -31 -20 -39 c-20 -40 -29 -44 -58 -29 -14 8 -51 -24 -212 -185
-106 -107 -198 -194 -204 -194 -5 0 -31 13 -56 29 l-46 29 71 268 70 267 -22
15 -21 14 20 39 c10 21 23 39 27 39 4 0 31 -14 60 -30z m4475 -317 c20 -48 34
-90 29 -95 -4 -4 -24 -14 -44 -22 l-37 -16 -23 49 -23 48 -72 -33 -72 -33 33
-73 c21 -45 39 -72 47 -70 8 2 49 19 92 38 43 19 80 34 82 34 7 0 35 -58 35
-73 0 -8 -38 -30 -90 -53 -101 -43 -98 -32 -49 -139 30 -66 37 -72 68 -55 15
8 21 3 36 -30 10 -22 15 -43 12 -47 -9 -8 -177 -83 -188 -83 -5 0 -16 17 -24
37 -15 36 -15 38 5 53 l22 16 -89 202 c-58 134 -92 200 -100 197 -7 -3 -19 -8
-27 -11 -9 -3 -19 9 -30 37 -9 23 -16 43 -14 44 7 7 364 164 373 164 6 1 27
-38 48 -86z m-3798 -28 c88 -38 164 -71 168 -75 12 -11 -64 -180 -80 -180 -25
0 -75 31 -70 43 3 7 12 28 21 48 l15 37 -82 35 -82 36 -26 -58 c-46 -101 -50
-92 51 -135 49 -21 90 -39 90 -41 0 -15 -33 -75 -41 -75 -6 0 -47 16 -92 35
-44 19 -83 33 -85 30 -6 -5 -72 -156 -72 -162 0 -4 116 -57 148 -67 20 -7 25
-1 43 42 l21 50 36 -15 c21 -8 40 -18 44 -21 11 -11 -70 -187 -84 -184 -40 10
-388 166 -388 173 0 6 7 26 15 45 11 28 19 35 32 29 10 -3 22 -7 26 -8 8 -2
176 379 177 401 0 6 -6 12 -14 12 -24 0 -27 17 -10 59 16 40 16 40 47 27 18
-7 104 -44 192 -81z m448 -160 c195 -60 211 -79 175 -214 -21 -84 -48 -121
-86 -121 l-25 0 21 -23 c28 -29 28 -81 3 -162 l-19 -60 21 -9 c12 -6 23 -11
25 -12 8 -5 -20 -84 -29 -84 -6 0 -41 9 -79 21 l-68 20 34 112 c47 157 48 152
-37 177 -39 12 -72 20 -74 18 -2 -2 -19 -59 -40 -128 -20 -69 -38 -126 -40
-128 -2 -2 -35 6 -74 18 -74 22 -77 26 -62 80 5 19 14 25 35 25 29 0 29 1 91
210 54 180 60 210 46 213 -29 7 -33 19 -20 61 14 47 -5 49 202 -14z m2855 27
c20 -21 47 -91 100 -253 66 -200 73 -227 62 -254 -19 -51 -39 -64 -151 -100
-125 -40 -143 -42 -186 -16 -29 18 -37 37 -108 251 -81 247 -84 268 -41 309
28 27 208 89 259 90 30 1 45 -5 65 -27z m-2318 -152 c58 -11 114 -22 126 -25
21 -5 21 -6 6 -87 -9 -46 -16 -84 -17 -86 -1 -1 -25 3 -54 9 -54 11 -55 13
-36 75 2 7 -20 16 -52 23 -92 18 -101 16 -112 -26 -18 -72 -21 -98 -12 -111 4
-8 44 -21 87 -29 150 -28 166 -52 140 -200 -26 -147 -46 -173 -128 -173 -46 1
-274 43 -284 52 -3 4 2 45 12 93 l17 87 51 -7 c28 -3 52 -8 54 -9 1 -2 -2 -23
-7 -47 -5 -24 -9 -45 -7 -46 8 -9 146 -29 154 -24 27 16 50 142 30 158 -7 6
-49 18 -93 27 -95 20 -120 34 -135 80 -9 29 -8 52 5 118 22 114 24 118 53 145
31 29 64 29 202 3z m1574 -22 c13 -48 7 -68 -18 -68 -22 0 -30 -14 -78 -137
l-54 -138 13 -95 c7 -52 12 -95 13 -95 0 -1 12 -1 28 0 25 0 27 -3 30 -42 3
-37 0 -43 -20 -47 -45 -10 -183 -25 -187 -20 -2 2 -5 23 -5 46 -1 38 2 43 22
46 23 4 24 5 17 75 -11 103 -15 112 -104 237 -76 106 -84 114 -112 112 -26 -3
-29 -1 -29 26 0 17 -3 37 -6 46 -6 16 4 20 83 30 l42 6 77 -117 77 -118 44
132 c48 142 45 139 124 142 30 1 38 -3 43 -21z m-1141 -28 c36 0 37 -1 37 -37
0 -49 -12 -67 -39 -60 -12 3 -21 4 -21 4 0 -1 -9 -99 -20 -217 -11 -118 -20
-218 -20 -222 0 -5 11 -8 26 -8 24 0 25 -2 22 -47 -3 -41 -6 -48 -23 -46 -11
1 -60 5 -108 8 -72 6 -87 10 -83 22 3 8 6 28 6 44 0 25 4 29 28 29 l28 0 17
208 c22 259 22 242 -8 242 -27 0 -29 7 -18 60 l6 33 66 -7 c36 -3 83 -6 104
-6z m597 -100 l0 -90 -50 0 -50 0 0 45 0 45 -45 0 -45 0 0 -225 0 -225 30 0
c29 0 30 -2 30 -45 l0 -45 -49 0 c-26 0 -76 -3 -110 -6 l-61 -7 0 52 c0 51 0
51 32 51 l31 0 -6 122 c-4 66 -7 165 -7 220 l0 98 -45 0 -45 0 0 -40 0 -40
-50 0 -50 0 0 90 0 90 245 0 245 0 0 -90z"/>
<path d="M5946 10864 c-16 -63 -26 -117 -23 -120 2 -3 29 -4 59 -2 l54 3 -25
118 c-14 64 -28 117 -31 117 -3 0 -19 -52 -34 -116z"/>
<path d="M6912 10843 c-26 -122 -26 -122 -1 -127 134 -31 134 -31 151 62 14
74 6 87 -55 96 -23 4 -52 9 -63 12 -19 5 -23 0 -32 -43z"/>
<path d="M7426 10744 c-8 -7 -42 -97 -76 -199 -48 -145 -59 -189 -50 -200 11
-13 122 -55 146 -55 7 0 22 26 34 58 52 137 110 316 110 337 0 20 -11 27 -75
48 -65 22 -77 24 -89 11z"/>
<path d="M5730 9874 c-93 -6 -370 -34 -397 -40 l-23 -6 0 -329 0 -329 -22 -4
c-301 -63 -614 -169 -860 -292 l-87 -44 -192 265 c-105 146 -194 265 -197 265
-10 0 -178 -104 -277 -171 -183 -124 -452 -346 -577 -476 l-38 -38 195 -269
195 -268 -23 -28 c-248 -303 -330 -422 -459 -668 l-63 -119 -304 99 c-168 54
-310 97 -317 94 -29 -11 -172 -417 -233 -662 -23 -90 -81 -386 -81 -411 0 -1
141 -48 313 -104 l313 -101 -1 -302 c0 -244 4 -327 19 -441 11 -77 20 -150 20
-163 1 -22 -19 -30 -303 -122 -166 -54 -306 -101 -309 -105 -17 -17 104 -437
185 -645 60 -153 183 -410 197 -410 6 0 148 45 316 100 283 93 306 99 318 82
7 -9 54 -80 105 -157 106 -161 216 -302 336 -427 46 -48 81 -94 78 -100 -3 -7
-88 -128 -191 -268 -102 -140 -185 -258 -183 -261 1 -3 36 -36 77 -73 223
-201 495 -394 745 -527 l93 -50 25 33 c14 18 100 137 192 263 92 127 170 231
174 233 5 1 46 -14 92 -34 186 -82 428 -160 614 -199 44 -9 88 -19 98 -22 16
-4 17 -29 17 -333 l0 -330 23 -4 c50 -11 202 -26 362 -37 212 -14 541 -2 713
27 l32 5 0 329 c0 182 2 330 5 330 2 0 68 13 147 30 181 38 376 96 546 165
l133 53 52 -72 c29 -39 117 -160 196 -269 l144 -197 96 52 c294 158 563 345
795 552 l38 35 -23 33 c-13 18 -89 123 -169 233 -80 110 -156 215 -169 233
l-24 34 65 66 c164 169 332 381 443 560 32 51 63 91 69 89 54 -20 607 -197
616 -197 16 0 145 273 213 450 79 206 191 590 176 604 -2 2 -139 48 -304 101
-165 53 -304 100 -308 105 -5 4 -4 34 2 66 37 206 53 560 36 800 l-7 102 313
102 c173 56 315 103 316 104 7 6 -50 298 -82 422 -64 249 -212 654 -239 654
-7 0 -143 -43 -304 -95 -161 -52 -298 -95 -304 -95 -7 0 -42 55 -78 122 -119
221 -354 553 -469 662 -17 17 -31 37 -31 45 1 9 86 133 191 276 l190 260 -93
88 c-192 183 -424 358 -661 501 -86 52 -151 86 -156 80 -4 -5 -90 -123 -191
-262 -100 -138 -186 -254 -191 -257 -4 -3 -43 12 -86 33 -232 117 -509 205
-870 278 l-23 4 0 329 0 329 -37 6 c-137 22 -518 39 -673 30z m240 -879 c0
-34 1 -35 40 -35 l40 0 0 -55 0 -55 -40 0 -40 0 0 -54 c0 -40 7 -68 28 -107
21 -41 27 -67 27 -115 l0 -62 52 5 c59 6 95 -1 117 -23 24 -24 20 -100 -10
-169 -14 -33 -31 -78 -37 -100 -6 -22 -13 -42 -14 -44 -9 -13 -65 59 -78 100
-18 54 -26 62 -49 53 -59 -23 5 -163 91 -200 38 -16 142 -18 194 -4 85 24 154
104 129 150 -17 31 -33 20 -53 -36 -20 -56 -48 -84 -84 -84 l-26 0 5 113 c5
132 23 180 78 209 35 19 85 20 123 4 12 -6 17 -4 17 10 0 70 162 208 191 163
17 -27 10 -143 -11 -184 -19 -37 -19 -40 -3 -49 66 -37 79 -92 38 -162 -35
-59 -125 -137 -142 -122 -16 13 -17 66 -3 104 14 35 4 43 -21 17 -31 -30 -38
-107 -13 -135 44 -48 157 -64 224 -30 45 22 67 63 95 172 30 117 62 172 118
199 58 28 80 28 71 -1 -28 -93 -235 -458 -297 -525 l-20 -23 -802 0 -802 0
-55 78 c-72 100 -124 192 -204 355 -70 145 -70 154 9 119 64 -28 91 -71 125
-196 33 -120 52 -152 103 -178 70 -36 200 -12 229 43 15 27 4 92 -20 121 -24
30 -35 17 -21 -23 15 -42 14 -71 -3 -94 -12 -17 -16 -16 -61 26 -76 69 -105
115 -105 165 0 35 5 47 31 68 17 14 35 26 41 26 6 0 3 11 -6 24 -24 37 -37
112 -30 167 8 59 20 62 85 21 55 -35 94 -80 109 -127 12 -35 23 -44 35 -25 11
18 81 11 116 -13 54 -36 70 -79 72 -204 2 -102 1 -108 -19 -111 -32 -5 -71 34
-89 88 -18 55 -41 65 -51 23 -11 -42 22 -93 79 -122 69 -35 186 -41 250 -13
79 35 136 155 92 192 -21 17 -39 1 -54 -49 -11 -38 -60 -101 -78 -101 -4 0 -9
12 -10 28 -1 15 -16 58 -33 96 -17 37 -34 90 -37 116 -5 43 -3 51 22 75 25 26
31 27 98 23 l72 -5 0 66 c0 53 6 77 28 118 19 37 27 67 27 103 l0 50 -45 0
-45 0 0 55 0 55 45 0 c45 0 45 0 45 35 l0 35 60 0 60 0 0 -35z m2045 -2630 l0
-1450 -22 -122 c-82 -449 -329 -853 -708 -1158 -750 -604 -1805 -653 -2600
-123 -531 355 -847 880 -886 1473 -10 160 -13 2818 -2 2828 3 4 954 6 2112 5
l2106 -3 0 -1450z"/>
<path d="M3910 6363 c0 -806 4 -1376 10 -1433 21 -202 74 -386 161 -566 50
-103 162 -280 218 -344 l30 -35 1 273 0 272 -45 0 -45 0 0 95 0 95 120 0 120
0 0 -75 0 -75 155 0 155 0 0 75 0 75 90 0 90 0 0 -75 0 -75 155 0 155 0 0 75
0 75 90 0 90 0 0 -75 0 -75 155 0 155 0 0 75 0 75 90 0 90 0 0 -75 0 -75 155
0 155 0 0 75 0 75 90 0 90 0 0 -75 0 -75 155 0 155 0 0 75 0 75 90 0 90 0 0
-75 0 -75 155 0 155 0 0 75 0 75 120 0 120 0 0 -94 0 -95 -42 -3 -43 -3 -3
-313 c-1 -173 1 -312 6 -310 15 6 112 118 172 199 143 193 241 412 297 664
l27 120 3 1408 4 1407 -1996 0 -1995 0 0 -1337z m2136 1021 c20 -14 22 -19 12
-31 -10 -12 -9 -18 7 -29 16 -12 17 -17 5 -39 -16 -29 -32 -32 -51 -8 -8 9
-33 25 -57 35 l-42 19 15 30 c13 24 19 28 34 19 14 -7 22 -6 31 5 15 19 15 19
46 -1z m-523 -38 c106 -45 133 -173 55 -261 l-30 -35 27 0 c25 0 26 -3 23 -37
-3 -35 -1 -38 26 -41 25 -3 28 -6 22 -33 -5 -27 -4 -29 27 -29 27 0 41 10 84
59 51 58 52 59 54 131 l2 74 -45 25 c-44 25 -47 25 -66 8 -19 -17 -20 -17 -25
9 -13 72 36 134 108 134 43 0 65 -15 79 -54 5 -15 9 -17 18 -8 31 31 112 -1
134 -53 17 -42 5 -80 -31 -97 -30 -14 -39 -42 -33 -108 7 -70 47 -120 94 -120
34 0 35 1 29 30 -6 27 -4 30 17 30 30 0 54 15 39 24 -6 4 -11 18 -11 32 0 19
5 24 27 24 l27 0 -26 28 c-38 40 -48 65 -48 117 0 125 128 202 239 143 76 -41
109 -149 78 -251 -15 -45 -14 -48 6 -62 12 -8 36 -18 54 -21 39 -7 43 -29 12
-68 -20 -25 -27 -27 -78 -24 -31 2 -63 6 -71 9 -13 3 -15 -8 -12 -71 3 -85 10
-94 80 -112 50 -12 53 -28 13 -69 -54 -53 -151 -34 -191 39 l-21 37 6 -94 c4
-52 9 -100 12 -107 5 -13 73 -44 98 -44 23 0 18 -38 -10 -65 -18 -19 -35 -25
-69 -25 -81 0 -121 35 -152 133 l-13 42 0 -62 c-1 -35 -5 -63 -11 -63 -17 0
-11 -29 20 -90 29 -57 32 -60 68 -60 45 0 109 -17 118 -31 3 -5 -1 -21 -10
-34 -14 -21 -20 -23 -42 -15 -24 10 -25 9 -10 -12 22 -31 20 -45 -9 -52 -20
-5 -33 2 -66 34 -45 44 -71 54 -136 55 -42 0 -43 1 -43 33 0 31 2 32 40 32
l40 0 -24 49 c-24 47 -61 71 -86 56 -16 -10 -11 -131 6 -174 21 -52 68 -76
136 -68 26 3 48 3 48 0 0 -3 -11 -25 -24 -47 -31 -54 -62 -70 -120 -64 l-45 5
-11 -46 c-13 -54 -51 -108 -68 -97 -20 12 -52 83 -52 115 l0 30 -53 -6 c-49
-5 -56 -3 -89 26 -20 17 -41 45 -46 61 l-11 29 47 -6 c66 -7 118 16 137 61 9
20 15 67 15 109 l0 74 -38 -1 c-41 -1 -37 4 -80 -98 -2 -4 15 -8 37 -8 38 0
41 -2 41 -29 0 -27 -3 -29 -57 -35 -61 -7 -111 -33 -142 -72 -15 -19 -25 -23
-45 -18 -36 9 -39 18 -15 48 l21 26 -28 -10 c-15 -6 -28 -9 -29 -8 -6 8 -25
47 -25 53 0 13 71 35 113 35 l44 0 32 71 c23 51 29 75 22 82 -6 6 -11 34 -12
62 l0 50 -14 -45 c-8 -25 -27 -60 -42 -79 -24 -28 -37 -34 -82 -39 -60 -5 -93
8 -110 45 -15 33 -14 43 7 43 9 0 36 9 58 19 l42 19 6 74 c4 40 9 91 12 113
l5 40 -22 -44 c-27 -53 -70 -81 -126 -81 -46 0 -86 28 -97 66 -6 19 -1 23 36
32 71 18 78 28 85 115 4 52 2 77 -5 77 -6 0 -14 -4 -17 -10 -3 -5 -31 -10 -61
-10 -45 0 -59 4 -79 25 -38 37 -33 59 18 73 66 18 67 20 51 82 -29 107 5 213
80 250 48 23 94 26 139 6z m-703 -269 c76 -28 159 -112 190 -192 59 -153 11
-322 -118 -415 l-54 -39 39 -10 c21 -5 55 -13 76 -17 20 -3 40 -11 44 -18 12
-18 94 -229 90 -232 -1 -2 -51 35 -109 82 -59 46 -109 84 -111 84 -2 0 -13
-13 -24 -29 l-22 -28 40 -128 c38 -123 41 -130 110 -209 l71 -81 -6 -175 c-3
-96 -9 -248 -12 -337 l-6 -163 -333 0 -332 0 4 48 c3 26 15 175 27 332 l21
285 95 68 c52 37 126 86 163 108 l69 41 22 -21 c25 -23 47 -26 77 -10 46 24
43 99 -5 121 -23 10 -25 15 -19 53 l5 43 -56 13 c-62 13 -60 12 -46 39 8 15 6
21 -11 30 -18 10 -25 8 -49 -15 l-29 -28 -83 67 -83 66 -23 -27 c-48 -58 -49
-57 38 -129 l80 -68 -27 -30 c-37 -41 -44 -46 -70 -46 -27 0 -34 -10 -26 -39
4 -17 11 -21 27 -18 11 3 47 10 78 17 55 11 58 13 98 76 22 35 44 64 49 64 5
0 23 -3 40 -6 60 -12 30 -84 -55 -128 -29 -15 -100 -61 -156 -101 -57 -40
-106 -71 -110 -69 -3 2 -36 60 -73 129 l-66 125 60 79 60 79 -122 105 c-104
88 -126 112 -145 156 l-21 52 57 -7 c53 -6 65 -13 180 -107 91 -73 127 -96
135 -88 6 6 20 11 31 11 14 0 8 8 -22 30 -208 151 -180 483 51 598 92 46 191
49 297 9z m2357 -7 c74 -34 133 -92 170 -168 24 -50 28 -69 28 -147 0 -81 -3
-97 -32 -155 -17 -36 -47 -80 -66 -98 l-34 -33 -49 19 c-40 16 -66 19 -144 15
-52 -2 -125 -11 -162 -20 -37 -9 -69 -15 -71 -12 -2 2 -36 62 -76 133 -72 129
-73 130 -66 185 29 243 279 384 502 281z m-474 -511 c35 -64 47 -97 47 -128 0
-38 -57 -451 -63 -457 -1 -1 -30 0 -63 3 l-61 6 -7 89 c-7 88 -6 92 34 194
l40 105 0 157 c0 177 -5 175 73 31z m774 -31 c21 -20 22 -23 6 -40 -15 -17
-15 -18 13 -18 21 0 40 -10 62 -33 l32 -33 -69 -68 -68 -67 -31 36 c-18 19
-32 45 -32 57 0 21 0 21 -25 -2 -25 -23 -25 -24 -6 -44 11 -12 34 -78 54 -154
29 -113 32 -134 20 -139 -8 -3 -68 -3 -133 0 -131 7 -219 33 -257 74 -29 30
-29 37 1 51 20 9 35 5 98 -28 l74 -39 32 19 c29 18 31 22 21 44 -10 21 -15 23
-34 14 -16 -7 -29 -7 -45 2 -22 12 -20 14 59 94 l82 82 -22 20 -21 19 -84 -88
-84 -88 -34 12 c-31 11 -37 10 -82 -21 -27 -18 -50 -34 -52 -36 -2 -1 4 -16
12 -33 9 -16 16 -32 16 -36 0 -3 -36 -5 -80 -5 l-80 0 0 -110 0 -110 110 0
110 0 0 80 c0 44 1 80 3 80 2 0 37 -11 77 -25 40 -14 88 -25 105 -25 18 0 52
-3 76 -6 l44 -6 29 -347 c15 -190 30 -370 33 -398 l6 -53 -335 0 -335 0 -6
358 -5 357 34 235 c19 129 36 249 39 265 5 28 10 32 71 48 36 10 109 20 162
24 92 5 101 4 177 -27 l80 -32 74 81 c41 45 77 81 80 81 2 0 15 -10 28 -22z
m-2454 -398 l97 -75 -6 -70 c-10 -109 -24 -111 -108 -15 -46 54 -61 79 -81
146 -14 45 -25 87 -25 93 0 16 9 10 123 -79z m-213 -50 c0 -5 -4 -10 -10 -10
-5 0 -10 5 -10 10 0 6 5 10 10 10 6 0 10 -4 10 -10z m2170 -110 l0 -50 -50 0
-50 0 0 50 0 50 50 0 50 0 0 -50z m-1480 -215 l0 -75 60 0 60 0 0 75 0 75 90
0 90 0 0 -75 0 -75 60 0 60 0 0 75 0 75 90 0 90 0 0 -75 0 -75 65 0 65 0 0 75
0 75 90 0 90 0 0 -126 0 -126 -60 -77 -60 -78 0 -296 0 -297 -65 0 -64 0 -3
-77 -3 -78 -47 -3 -48 -3 0 81 0 80 -197 -2 -198 -3 -3 -77 -3 -78 -44 0 -44
0 -3 78 -3 77 -62 3 -63 3 0 293 0 293 -60 76 -60 76 0 131 0 130 90 0 90 0 0
-75z m-500 -800 l0 -125 -160 0 -160 0 0 -81 0 -80 -47 3 -48 3 -3 78 -3 77
-124 0 -125 0 0 125 0 125 335 0 335 0 0 -125z m2390 0 l0 -125 -125 0 -125 0
0 -80 0 -80 -50 0 -50 0 0 80 0 80 -160 0 -160 0 0 125 0 125 335 0 335 0 0
-125z"/>
<path d="M4600 6968 c-49 -25 -95 -84 -105 -135 l-7 -33 54 0 c50 0 54 2 65
30 16 42 72 65 119 50 63 -21 78 -67 45 -133 l-19 -37 44 -26 c25 -15 46 -25
48 -23 2 2 14 24 26 49 46 89 22 188 -59 245 -58 41 -146 46 -211 13z"/>
<path d="M6952 6969 c-24 -12 -53 -36 -66 -53 -26 -35 -48 -94 -40 -107 3 -5
26 -9 52 -9 44 0 49 2 59 30 24 65 131 73 170 13 17 -25 15 -40 -13 -123 -4
-11 8 -23 36 -39 23 -13 43 -21 44 -20 24 27 50 103 50 146 1 136 -162 226
-292 162z"/>
<path d="M5750 4319 c-87 -13 -217 -59 -286 -100 -240 -144 -402 -407 -421
-681 l-6 -87 57 -25 c92 -41 273 -96 396 -121 363 -74 707 -53 1063 65 97 32
126 46 130 62 11 39 -15 213 -43 302 -90 277 -297 483 -562 560 -101 29 -233
39 -328 25z m148 -166 c2 -15 10 -23 23 -23 14 0 19 -7 19 -30 0 -23 -5 -30
-19 -30 -13 0 -21 -8 -23 -22 -2 -18 -11 -24 -35 -26 -30 -3 -33 -1 -33 22 0
19 -5 26 -20 26 -16 0 -20 7 -20 30 0 23 4 30 20 30 15 0 20 7 20 26 0 23 3
25 33 22 24 -2 33 -8 35 -25z m-158 -159 c67 -80 125 -142 129 -138 4 5 58 71
121 147 62 75 115 137 117 137 2 0 15 -7 28 -16 20 -13 23 -20 14 -35 -7 -14
-6 -19 4 -19 8 0 31 -13 51 -29 l36 -29 -56 -69 c-31 -37 -59 -69 -64 -71 -12
-4 -70 48 -70 64 0 8 -4 14 -9 14 -8 0 -131 -145 -131 -156 0 -3 27 -39 61
-79 l60 -73 105 -7 c57 -4 107 -12 110 -17 6 -9 -14 -246 -21 -258 -3 -4 -225
12 -264 19 -4 1 9 168 15 196 4 14 -13 43 -53 93 l-58 72 -53 -57 c-28 -32
-55 -68 -58 -80 -3 -13 -2 -68 3 -123 5 -55 6 -100 3 -101 -120 -15 -263 -23
-265 -14 -2 5 -8 64 -15 129 -8 92 -8 121 1 127 7 4 56 10 111 14 l98 7 56 67
c31 36 58 72 61 79 5 11 -95 143 -119 158 -5 3 -12 -2 -15 -12 -3 -11 -19 -30
-36 -44 l-30 -24 -44 49 c-25 28 -52 61 -61 74 -15 23 -15 25 16 52 18 16 39
29 48 29 11 0 14 5 10 16 -6 16 19 54 35 54 4 0 63 -66 129 -146z"/>
<path d="M5613 3570 c-34 -3 -63 -7 -65 -10 -3 -3 -2 -32 1 -65 7 -68 15 -73
98 -60 41 6 43 8 42 38 0 18 -3 48 -7 67 l-7 35 -62 -5z"/>
<path d="M6036 3514 c-4 -36 -5 -68 -3 -71 2 -2 33 -6 69 -10 l65 -6 6 64 c6
73 2 79 -60 79 -23 0 -48 2 -56 6 -11 4 -16 -9 -21 -62z"/>
<path d="M8992 9784 l-102 -76 48 -38 c26 -21 48 -37 48 -37 6 7 113 227 111
227 -2 0 -49 -34 -105 -76z"/>
<path d="M1445 8357 c-38 -69 -42 -89 -22 -105 31 -25 337 -182 356 -182 30 0
99 136 79 155 -18 17 -352 195 -366 195 -6 0 -27 -29 -47 -63z"/>
<path d="M1232 7907 c-19 -22 -53 -120 -45 -128 7 -7 137 -59 147 -59 2 0 16
30 31 67 31 77 29 80 -53 112 -62 25 -66 25 -80 8z"/>
<path d="M10455 7858 c-60 -10 -111 -20 -113 -22 -4 -4 28 -88 39 -100 6 -7
158 94 204 135 12 12 2 11 -130 -13z"/>
<path d="M1095 6184 c-9 -83 -1 -92 84 -101 80 -8 91 4 91 92 l0 62 -61 7
c-112 11 -106 15 -114 -60z"/>
<path d="M1040 5758 c-96 -5 -185 -13 -197 -18 -21 -9 -23 -16 -23 -84 0 -53
4 -77 15 -86 12 -10 58 -10 213 -3 110 6 205 13 212 18 9 6 11 29 8 86 -3 44
-7 81 -9 83 -12 11 -61 12 -219 4z"/>
<path d="M10512 5247 c-6 -7 -16 -43 -22 -81 -10 -56 -10 -70 1 -81 16 -16
383 -78 410 -70 22 7 47 139 32 164 -7 11 -59 24 -169 42 -249 41 -241 40
-252 26z"/>
<path d="M10247 4253 c-29 -58 -51 -133 -41 -142 5 -5 94 -42 197 -81 143 -54
192 -68 202 -60 8 6 25 41 39 78 21 54 24 69 13 79 -12 13 -369 153 -388 153
-5 0 -15 -12 -22 -27z"/>
<path d="M1500 4068 c-63 -11 -116 -21 -118 -23 -5 -5 40 -105 47 -105 6 0
177 123 196 141 11 11 18 12 -125 -13z"/>
<path d="M4545 1448 c-19 -54 -43 -143 -40 -148 2 -4 34 -15 71 -25 64 -17 68
-17 80 0 17 23 39 119 31 138 -3 7 -32 21 -64 30 -71 20 -72 20 -78 5z"/>
<path d="M7303 1477 c-34 -12 -67 -27 -72 -32 -11 -11 97 -365 122 -399 13
-18 16 -18 88 6 68 23 74 27 76 54 3 42 -118 389 -137 391 -8 1 -43 -8 -77
-20z"/>
</g>
</svg>
